HIERARCHY
ROOT Hips
{
	OFFSET -0.001795 -0.223333 0.028219
	CHANNELS 6 Xposition Yposition Zposition Zrotation Yrotation Xrotation 
	JOINT LeftUpLeg
	{
		OFFSET 0.069520 -0.091406 -0.006815
		CHANNELS 3 Zrotation Yrotation Xrotation
		JOINT LeftLeg
		{
			OFFSET 0.034277 -0.375199 -0.004496
			CHANNELS 3 Zrotation Yrotation Xrotation
			JOINT LeftFoot
			{
				OFFSET -0.013596 -0.397961 -0.043693
				CHANNELS 3 Zrotation Yrotation Xrotation
				JOINT LeftToe
				{
					OFFSET 0.026358 -0.055791 0.119288
					CHANNELS 3 Zrotation Yrotation Xrotation
					End Site
					{
						OFFSET 0.000000 0.000000 0.000000
					}
				}
			}
		}
	}
	JOINT RightUpLeg
	{
		OFFSET -0.067670 -0.090522 -0.004320
		CHANNELS 3 Zrotation Yrotation Xrotation
		JOINT RightLeg
		{
			OFFSET -0.038290 -0.382569 -0.008850
			CHANNELS 3 Zrotation Yrotation Xrotation
			JOINT RightFoot
			{
				OFFSET 0.015774 -0.398415 -0.042312
				CHANNELS 3 Zrotation Yrotation Xrotation
				JOINT RightToe
				{
					OFFSET -0.025372 -0.048144 0.123348
					CHANNELS 3 Zrotation Yrotation Xrotation
					End Site
					{
						OFFSET 0.000000 0.000000 0.000000
					}
				}
			}
		}
	}
	JOINT Spine
	{
		OFFSET -0.002533 0.108963 -0.026696
		CHANNELS 3 Zrotation Yrotation Xrotation
		JOINT Spine1
		{
			OFFSET 0.005487 0.135180 0.001092
			CHANNELS 3 Zrotation Yrotation Xrotation
			JOINT Spine2
			{
				OFFSET 0.001457 0.052922 0.025425
				CHANNELS 3 Zrotation Yrotation Xrotation
				JOINT Neck
				{
					OFFSET -0.002778 0.213870 -0.042857
					CHANNELS 3 Zrotation Yrotation Xrotation
					JOINT Head
					{
						OFFSET 0.005152 0.064970 0.051349
						CHANNELS 3 Zrotation Yrotation Xrotation
						End Site
						{
							OFFSET 0.000000 0.000000 0.000000
						}
					}
				}
				JOINT LeftShoulder
				{
					OFFSET 0.078845 0.121749 -0.034090
					CHANNELS 3 Zrotation Yrotation Xrotation
					JOINT LeftArm
					{
						OFFSET 0.090977 0.030469 -0.008868
						CHANNELS 3 Zrotation Yrotation Xrotation
						JOINT LeftForeArm
						{
							OFFSET 0.259612 -0.012772 -0.027456
							CHANNELS 3 Zrotation Yrotation Xrotation
							JOINT LeftHand
							{
								OFFSET 0.249234 0.008986 -0.001171
								CHANNELS 3 Zrotation Yrotation Xrotation
								End Site
								{
									OFFSET 0.000000 0.000000 0.000000
								}
							}
						}
					}
				}
				JOINT RightShoulder
				{
					OFFSET -0.081759 0.118833 -0.038615
					CHANNELS 3 Zrotation Yrotation Xrotation
					JOINT RightArm
					{
						OFFSET -0.096012 0.032551 -0.009143
						CHANNELS 3 Zrotation Yrotation Xrotation
						JOINT RightForeArm
						{
							OFFSET -0.253742 -0.013329 -0.021401
							CHANNELS 3 Zrotation Yrotation Xrotation
							JOINT RightHand
							{
								OFFSET -0.255298 0.007772 -0.005559
								CHANNELS 3 Zrotation Yrotation Xrotation
								End Site
								{
									OFFSET 0.000000 0.000000 0.000000
								}
							}
						}
					}
				}
			}
		}
	}
}
MOTION
Frames: 17
Frame Time: 0.050000
0.000000 0.880449 0.000000 -2.682795 -20.649975 1.510786 18.243876 3.491854 -20.604309 -4.414367 2.514323 25.433319 3.239600 7.215780 6.044361 0.000000 0.000000 0.000000 -16.042811 1.203250 -13.229228 -8.980866 7.761942 34.141972 8.237677 14.144026 6.754280 0.000000 0.000000 0.000000 4.356546 -0.773323 12.042954 -1.002056 0.160881 -19.708206 -5.179850 8.918215 19.638090 13.055445 -8.041733 -16.718253 0.000000 0.000000 0.000000 -3.431148 -18.145793 7.017252 -24.702970 -36.378849 2.512733 94.179461 -66.206506 -63.463266 0.000000 0.000000 0.000000 21.723478 -7.725918 -7.001420 45.423113 -9.509870 -8.954663 129.697654 55.801622 99.637269 0.000000 0.000000 0.000000 
-0.049913 0.880750 -0.036056 -3.043048 -11.028169 3.843947 20.502039 3.730931 -26.870139 -2.415103 0.698997 22.368105 -2.654637 -0.214371 13.974739 0.000000 0.000000 0.000000 -14.089672 0.759934 -10.293009 -9.345692 6.489169 32.768137 9.549326 23.701739 1.658505 0.000000 0.000000 0.000000 3.177630 -0.731985 11.086473 -1.683413 0.720853 -22.030563 -2.352165 8.095930 19.787334 13.329019 -7.388091 -17.676238 0.000000 0.000000 0.000000 -7.296281 -15.868953 6.114941 -27.665754 -41.033501 3.961193 100.501105 -75.238652 -80.344936 0.000000 0.000000 0.000000 17.876852 -12.630429 -7.797103 49.351939 -12.322960 -10.919574 132.122407 53.900519 103.950960 0.000000 0.000000 0.000000 
-0.099705 0.887624 -0.074923 -3.286851 -0.018549 3.681085 19.671002 1.954807 -27.941745 1.457973 -0.919948 16.119292 -5.140764 -3.614598 12.828873 0.000000 0.000000 0.000000 -7.649461 0.442751 -6.072599 -8.792723 4.480498 28.983908 1.516228 9.608378 -7.517341 0.000000 0.000000 0.000000 6.302264 -1.171836 10.706870 0.402082 0.440988 -21.844903 -7.422169 7.361949 21.528803 14.877478 -6.744835 -21.885545 0.000000 0.000000 0.000000 -7.209674 -16.290288 5.452176 -29.853445 -38.957995 3.688073 94.062256 -76.226097 -77.842831 0.000000 0.000000 0.000000 20.075706 -12.585771 -6.693797 48.374280 -6.037708 -8.776156 131.734475 60.868840 116.673122 0.000000 0.000000 0.000000 
-0.142463 0.895631 -0.112124 -2.610187 4.701204 4.073873 19.984930 1.337657 -28.087863 -3.139247 0.105282 14.701357 0.761699 5.508714 9.371133 0.000000 0.000000 0.000000 -6.720554 0.414448 -6.773590 -5.904619 2.966076 29.544184 -0.667183 3.300910 -9.619962 0.000000 0.000000 0.000000 7.391725 -1.466772 11.549423 -0.159066 0.718347 -23.236832 -8.101879 9.098666 22.428001 15.784308 -6.177372 -23.743344 0.000000 0.000000 0.000000 -6.624117 -13.966215 3.952965 -31.149483 -38.419161 3.653690 119.111128 -80.494871 -110.287290 0.000000 0.000000 0.000000 16.999553 -13.000348 -5.743165 49.283415 -1.659605 -7.174335 141.925176 65.948502 139.811388 0.000000 0.000000 0.000000 
-0.177320 0.907085 -0.144049 -2.677556 9.928304 3.631928 18.171830 0.261582 -26.339977 -6.874924 0.712946 17.788543 6.569580 14.239676 2.482654 0.000000 0.000000 0.000000 -4.848671 0.406742 -6.557890 -1.930544 0.874333 26.175639 -3.013673 -5.166422 -11.305864 0.000000 0.000000 0.000000 7.818344 -1.472797 10.643916 -2.066646 1.301034 -22.013347 -5.923124 8.429623 23.199522 14.298205 -4.777405 -24.269181 0.000000 0.000000 0.000000 -7.914128 -14.074726 3.557261 -30.592333 -36.541909 3.133320 140.192157 -82.401446 -136.165442 0.000000 0.000000 0.000000 15.490366 -12.439933 -4.935168 50.133535 2.967738 -5.500519 141.330595 71.473067 145.706075 0.000000 0.000000 0.000000 
-0.203729 0.918887 -0.170682 -2.181838 14.574961 4.354568 15.960480 -0.570016 -24.559096 -11.173547 1.428218 20.675721 11.834659 23.735978 3.310005 0.000000 0.000000 0.000000 -4.420956 0.375224 -6.567384 0.774794 -0.422955 23.511739 -2.763340 -5.860878 -8.990046 0.000000 0.000000 0.000000 7.463187 -1.343957 9.499007 -2.467140 1.491682 -22.330308 -4.866006 9.781325 24.517531 12.809291 -2.804700 -25.924708 0.000000 0.000000 0.000000 -6.148295 -11.632689 2.336213 -33.610516 -36.237989 3.228004 166.353571 -79.206854 -167.029977 0.000000 0.000000 0.000000 15.228527 -12.911224 -4.539240 50.107114 6.560384 -4.153921 148.739990 76.593374 161.509535 0.000000 0.000000 0.000000 
-0.223235 0.929299 -0.194720 -1.762966 19.968988 4.176231 13.074355 -1.212473 -21.899418 -13.898169 1.557584 23.726767 16.177835 30.158784 9.023703 0.000000 0.000000 0.000000 -4.069604 0.264867 -5.420403 2.847496 -1.238565 19.048207 -2.596182 -6.526961 -6.291549 0.000000 0.000000 0.000000 7.826546 -1.201370 7.790035 -3.567051 1.872937 -22.086976 -3.560124 9.183083 25.304209 11.861891 -2.104166 -24.512927 0.000000 0.000000 0.000000 -6.932235 -10.202726 1.293417 -35.662388 -33.916979 2.949709 -179.845097 -75.203494 174.681157 0.000000 0.000000 0.000000 15.839111 -12.016247 -3.471415 49.454276 9.464814 -3.334333 163.326086 82.064571 -177.276498 0.000000 0.000000 0.000000 
-0.237017 0.936799 -0.217784 -1.641334 25.483166 4.199870 11.968113 -1.422741 -18.848258 -16.285794 1.444911 25.056696 17.961194 31.808984 12.418103 0.000000 0.000000 0.000000 -3.116762 0.268553 -5.457091 3.168264 -1.481756 16.688616 -1.866134 -4.966831 -3.236790 0.000000 0.000000 0.000000 7.949861 -1.416740 8.846349 -4.202606 1.940027 -25.216505 -1.801210 10.046392 26.409950 10.792210 -0.596095 -25.105176 0.000000 0.000000 0.000000 -6.696786 -9.043760 0.347757 -38.589090 -30.593701 2.242831 -172.985045 -69.827169 162.046507 0.000000 0.000000 0.000000 16.082594 -13.001119 -3.389418 47.391027 11.891048 -2.499949 -166.441312 84.656441 -141.955337 0.000000 0.000000 0.000000 
-0.246383 0.938966 -0.240743 -1.453698 30.518492 4.573957 11.022735 -1.483571 -16.161840 -16.099078 0.833146 23.316694 19.105049 32.441214 14.311508 0.000000 0.000000 0.000000 -2.564050 0.252778 -5.397270 4.041077 -1.643825 12.998461 -3.067160 -8.387188 -1.047908 0.000000 0.000000 0.000000 8.163022 -1.329612 7.721622 -4.231998 2.035565 -24.651277 -1.044869 10.145105 26.370973 10.162895 0.283791 -24.741935 0.000000 0.000000 0.000000 -7.609128 -8.120421 -0.815666 -41.630799 -27.219386 1.625270 -165.441421 -64.255058 146.930101 0.000000 0.000000 0.000000 15.362202 -12.078177 -2.421284 47.073935 14.650695 -1.351458 -118.051582 80.466230 -84.318404 0.000000 0.000000 0.000000 
-0.252654 0.939505 -0.263204 -1.222086 35.888725 4.979443 12.131806 -1.604233 -14.360444 -16.104666 0.266900 23.213284 19.319658 31.872057 18.109557 0.000000 0.000000 0.000000 -2.636748 0.217972 -6.883254 4.369397 -2.017817 12.838112 -4.140326 -10.840213 0.841298 0.000000 0.000000 0.000000 8.553627 -1.572882 8.518685 -4.815851 2.040823 -26.420677 0.065141 10.225123 26.550800 8.702195 1.994463 -25.995204 0.000000 0.000000 0.000000 -8.541834 -7.869959 -1.928477 -44.001360 -23.327239 0.706151 -160.000059 -58.648747 132.474686 0.000000 0.000000 0.000000 16.024004 -12.204314 -1.828240 44.088135 17.354176 -0.783322 -114.589830 74.322491 -72.346849 0.000000 0.000000 0.000000 
-0.255872 0.938722 -0.284521 -0.634400 40.481219 5.232203 12.379499 -1.722433 -13.114122 -16.073500 -0.200963 22.876783 36.016298 40.001092 39.831210 0.000000 0.000000 0.000000 -3.595681 -0.016337 -7.390566 4.806932 -2.323857 12.183515 -5.674798 -14.052158 2.650609 0.000000 0.000000 0.000000 8.594058 -1.507438 7.865576 -4.125269 2.063085 -25.350512 0.060129 11.007448 26.059431 7.741717 3.362184 -27.392475 0.000000 0.000000 0.000000 -8.589823 -7.180710 -2.981242 -48.128416 -19.541378 -0.616975 -153.661617 -54.669856 115.743526 0.000000 0.000000 0.000000 15.147558 -11.745260 -1.203607 43.635749 19.986933 0.460757 -113.083028 67.941749 -61.300050 0.000000 0.000000 0.000000 
-0.255871 0.936984 -0.304161 -0.657776 45.678626 4.705374 13.909709 -2.007728 -11.760727 -14.993850 -0.828113 23.110346 54.851546 38.146295 65.697010 0.000000 0.000000 0.000000 -4.347247 -0.310985 -7.547248 5.321965 -2.753643 11.805020 -7.965440 -17.729636 6.208544 0.000000 0.000000 0.000000 9.006394 -1.660698 8.159218 -4.652256 2.136534 -25.679204 0.768634 10.510878 26.736448 8.281469 3.891573 -29.297361 0.000000 0.000000 0.000000 -9.036305 -7.566069 -3.721817 -50.640666 -14.728455 -2.541488 -149.755154 -51.008693 102.947007 0.000000 0.000000 0.000000 16.146908 -11.009794 0.025241 41.097918 22.085929 0.690337 -114.444928 60.827519 -53.389810 0.000000 0.000000 0.000000 
-0.252268 0.934410 -0.322962 0.612706 49.851247 5.348076 14.140261 -2.189526 -10.847209 -13.878663 -1.271609 22.637483 61.141417 34.203447 74.406173 0.000000 0.000000 0.000000 -6.277989 -0.898814 -8.027517 5.870849 -3.277255 12.124115 -10.479752 -21.218028 9.562155 0.000000 0.000000 0.000000 8.809929 -1.707376 8.429514 -4.555097 2.156986 -25.751156 0.683196 10.016041 26.381055 7.891709 4.451616 -29.733863 0.000000 0.000000 0.000000 -9.925027 -5.870610 -5.455268 -53.070484 -9.050856 -4.935044 -141.566455 -47.618136 83.711282 0.000000 0.000000 0.000000 16.558602 -10.702374 0.803733 39.328083 24.537202 1.167923 -115.508662 57.820198 -49.686081 0.000000 0.000000 0.000000 
-0.245439 0.931508 -0.341602 0.391103 54.649025 5.238164 14.559931 -2.475676 -11.486295 -11.689536 -1.720127 21.664017 62.911682 31.163699 76.659775 0.000000 0.000000 0.000000 -7.111848 -1.379336 -8.584489 6.368773 -3.954123 12.732336 -13.838510 -25.087957 14.058314 0.000000 0.000000 0.000000 8.946666 -1.620236 7.579175 -3.882259 2.122406 -25.368649 0.627584 8.993781 26.704747 6.922713 5.493932 -31.876960 0.000000 0.000000 0.000000 -10.616977 -5.077308 -6.802690 -54.433424 -1.970314 -8.109595 -133.800312 -45.949587 68.943454 0.000000 0.000000 0.000000 16.001584 -9.762917 1.598959 39.137922 24.293913 1.243537 -112.987633 53.930805 -41.898620 0.000000 0.000000 0.000000 
-0.235499 0.929138 -0.360104 0.828736 57.772491 5.521508 14.655644 -2.617113 -10.797619 -10.498135 -1.644524 18.968880 64.849323 28.491767 78.256537 0.000000 0.000000 0.000000 -8.481786 -2.046118 -9.351193 6.483057 -4.636011 14.214077 -16.706950 -27.465526 18.424673 0.000000 0.000000 0.000000 8.843934 -1.549970 7.160808 -3.571110 2.157646 -24.836905 1.027376 8.760452 25.902576 7.217208 5.618914 -31.756513 0.000000 0.000000 0.000000 -10.851614 -3.686056 -8.046163 -53.776115 4.468962 -10.557446 -123.019406 -46.048698 55.532101 0.000000 0.000000 0.000000 15.765726 -9.334817 2.079998 37.417511 24.360119 1.103164 -109.263594 53.024693 -37.934164 0.000000 0.000000 0.000000 
-0.223845 0.928335 -0.378612 1.565644 60.252451 5.802978 14.335437 -2.667560 -10.896394 -10.374218 -1.644975 17.650342 65.103848 27.501025 77.543226 0.000000 0.000000 0.000000 -9.097066 -2.445287 -9.396598 5.361542 -4.970126 16.280030 -18.050047 -29.050467 19.582610 0.000000 0.000000 0.000000 8.835799 -1.536506 7.028726 -3.473347 2.094602 -25.296428 1.496101 9.060510 26.805487 6.929516 6.249434 -32.976120 0.000000 0.000000 0.000000 -10.830738 -2.225130 -9.321860 -51.922468 9.237288 -12.032148 -111.877767 -49.446250 49.373657 0.000000 0.000000 0.000000 15.320512 -9.482205 2.170488 36.633705 24.474028 1.149457 -104.752918 51.689412 -32.548754 0.000000 0.000000 0.000000 
-0.211652 0.929427 -0.396526 1.555615 61.634499 5.457706 14.170793 -2.679421 -10.810809 -10.413897 -1.646424 17.027853 65.279740 26.840747 77.382843 0.000000 0.000000 0.000000 -9.882171 -2.850421 -9.544789 4.490630 -5.133258 17.719499 -18.988303 -28.523272 22.836425 0.000000 0.000000 0.000000 9.030303 -1.526956 6.774063 -3.536025 2.176151 -24.585430 1.770575 9.217118 26.249330 7.739455 6.037551 -33.167480 0.000000 0.000000 0.000000 -11.245129 -1.267433 -10.267890 -49.643816 12.973134 -12.611136 -97.039425 -55.544382 45.196798 0.000000 0.000000 0.000000 15.344026 -8.012966 3.272830 34.190369 24.422764 0.840938 -96.698218 50.807486 -28.226224 0.000000 0.000000 0.000000 
